<?xml version="1.0" standalone="no"?>
<!DOCTYPE svg PUBLIC "-//W3C//DTD SVG 20010904//EN"
 "http://www.w3.org/TR/2001/REC-SVG-20010904/DTD/svg10.dtd">
<svg version="1.0" xmlns="http://www.w3.org/2000/svg"
 width="700.000000pt" height="700.000000pt" viewBox="0 0 700.000000 700.000000"
 preserveAspectRatio="xMidYMid meet">
<metadata>
Created by potrace 1.11, written by Peter Selinger 2001-2013
</metadata>
<g transform="translate(0.000000,700.000000) scale(0.100000,-0.100000)"
fill="#000000" stroke="none">
<path d="M6287 6992 c-59 -7 -107 -81 -107 -166 0 -17 -7 -53 -15 -80 -46
-152 -176 -265 -332 -287 -110 -16 -145 -30 -170 -68 -65 -96 9 -211 135 -211
86 0 189 -48 263 -122 66 -66 106 -150 119 -250 5 -41 15 -87 21 -102 29 -63
127 -86 190 -43 38 25 52 60 67 169 17 113 85 220 182 284 46 31 144 64 189
64 89 0 146 37 161 105 17 76 -32 148 -108 160 -163 24 -224 48 -302 121 -62
58 -106 142 -120 229 -18 109 -28 139 -54 164 -26 25 -75 38 -119 33z m97
-607 c36 -36 66 -66 66 -68 0 -2 -30 -34 -67 -70 l-66 -67 -69 69 -69 68 68
66 c37 37 69 67 69 67 1 0 31 -29 68 -65z"/>
<path d="M1203 5804 c-26 -13 -143 -184 -610 -893 -528 -800 -578 -880 -581
-922 -2 -26 2 -58 9 -70 27 -51 602 -698 630 -710 42 -17 115 -6 144 21 14 13
29 38 36 57 22 68 10 88 -196 325 l-195 223 917 3 c504 1 920 -1 923 -5 10
-12 922 -3134 917 -3139 -2 -3 -238 263 -523 589 -285 326 -530 602 -543 612
-13 10 -43 20 -67 23 -53 6 -105 -23 -128 -72 -20 -42 -20 -67 -2 -109 16 -35
1455 -1679 1498 -1710 34 -25 98 -26 136 -1 30 19 1571 1774 1591 1812 34 64
-5 157 -76 181 -89 31 -59 61 -698 -670 -319 -363 -580 -657 -582 -652 -3 9
911 3130 919 3138 3 3 417 4 922 3 l917 -3 -412 -470 c-226 -258 -422 -484
-436 -502 -33 -43 -39 -92 -18 -137 34 -72 130 -99 193 -53 17 12 270 295 561
629 361 414 533 618 539 640 4 17 6 45 4 60 -7 44 -1141 1768 -1182 1796 l-33
22 -2271 0 c-2055 0 -2274 -2 -2303 -16z m2014 -306 c-172 -267 -830 -1263
-835 -1265 -6 -2 -853 1284 -860 1307 -2 7 302 10 862 10 l867 0 -34 -52z
m2257 25 c-312 -481 -848 -1293 -853 -1293 -5 0 -526 789 -803 1216 l-68 104
871 0 871 0 -18 -27z m-3770 -749 c234 -358 426 -654 426 -658 0 -3 -391 -6
-870 -6 -478 0 -870 2 -870 5 0 4 769 1175 843 1283 16 24 33 40 37 35 4 -4
199 -301 434 -659z m2231 9 c237 -361 432 -660 433 -665 2 -4 -389 -8 -868 -8
-479 0 -870 4 -868 8 7 18 863 1321 868 1321 3 0 199 -295 435 -656z m2249
-11 c236 -359 426 -655 424 -658 -3 -2 -395 -3 -871 -2 l-867 3 266 405 c146
223 342 521 435 664 94 142 174 255 178 250 4 -5 200 -303 435 -662z m-1746
-946 c-15 -65 -934 -3186 -938 -3186 -3 0 -214 714 -469 1588 -256 873 -466
1593 -469 1600 -3 9 189 12 938 12 795 0 941 -2 938 -14z"/>
<path d="M1302 3280 c-39 -24 -62 -73 -62 -132 0 -74 -28 -177 -71 -265 -31
-66 -58 -103 -117 -162 -119 -119 -228 -171 -402 -191 -102 -12 -139 -26 -164
-66 -23 -34 -24 -105 -2 -139 29 -43 70 -62 156 -68 155 -12 300 -79 409 -188
108 -108 175 -253 187 -406 4 -43 12 -89 19 -103 44 -87 163 -101 220 -26 20
26 27 51 35 127 13 120 23 156 73 254 58 113 162 216 277 272 87 43 204 73
282 73 86 0 145 64 135 147 -5 43 -32 84 -69 104 -9 5 -59 13 -111 19 -163 17
-289 76 -401 186 -111 111 -168 236 -186 405 -5 48 -13 96 -18 106 -36 67
-128 93 -190 53z m103 -632 c41 -62 149 -171 211 -214 30 -21 54 -39 54 -40 0
-2 -26 -22 -57 -46 -68 -49 -163 -145 -205 -205 -16 -24 -32 -43 -36 -43 -4 0
-22 22 -41 50 -38 55 -157 173 -213 210 -21 14 -38 28 -38 32 0 4 15 17 33 29
72 51 139 114 198 190 34 43 63 79 64 79 2 0 15 -19 30 -42z"/>
<path d="M5343 2430 c-41 -24 -63 -67 -63 -121 0 -35 6 -48 39 -80 35 -35 44
-39 90 -39 44 0 56 5 87 33 87 80 32 227 -86 227 -19 0 -49 -9 -67 -20z"/>
</g>
</svg>
